<svg width="22" height="15" xmlns="http://www.w3.org/2000/svg">
 <g id="Layer_1">
  <title>Layer 1</title>
  <ellipse stroke="#000" ry="6.97309" rx="7.04036" id="svg_1" cy="7.5" cx="11.49327" fill="#fff"/>
  <rect stroke="#000" id="svg_16" height="7.48879" width="8.07175" y="3.71076" x="7.4574" fill="#fff"/>
  <line id="svg_17" y2="2.00673" x2="7.41256" y1="3.48655" x1="7.41256" stroke="#000" fill="none"/>
  <line id="svg_18" y2="3.66592" x2="5.79821" y1="3.62108" x1="7.68162" stroke="#000" fill="none"/>
  <line id="svg_19" y2="3.66592" x2="17.32287" y1="3.66592" x1="14.81166" stroke="#000" fill="none"/>
  <line id="svg_20" y2="3.66592" x2="13.287" y1="3.66592" x1="13.33184" stroke="#000" fill="none"/>
  <line id="svg_22" y2="1.82735" x2="15.48431" y1="4.15919" x1="15.48431" stroke="#000" fill="none"/>
  <line id="svg_25" y2="11.02018" x2="17.41256" y1="10.97534" x1="5.66368" stroke="#000" fill="none"/>
  <line id="svg_27" y2="13.21749" x2="15.43946" y1="9.2713" x1="15.48431" stroke="#000" fill="none"/>
  <line id="svg_28" y2="13.03812" x2="7.41256" y1="9.18161" x1="7.41256" stroke="#000" fill="none"/>
  <path d="m6.56054,3.17265c0.04484,0 0.04484,-0.04484 0.08969,-0.04484c0.04484,0 0.0311,-0.02057 0.08969,-0.04484c0.04143,-0.01716 0.10282,0.03171 0.13453,0c0.03171,-0.03171 0,-0.04484 0.04484,-0.04484l0,-0.04484l0.04484,0" id="svg_29" stroke="#000" fill="none"/>
  <path d="m16.24664,2.94843c-0.04484,0 -0.04484,0 -0.08969,0c-0.04484,0 -0.08969,0 -0.13453,0c0,0 -0.04484,0 -0.08969,0c0,0 0.04484,0 0.08969,0l0,0l0.04484,0" id="svg_30" stroke="#000" fill="none"/>
  <path d="m15.84305,11.5583c0,0 0,0 0.04484,0c0,0 0.04484,0.04484 0.04484,0.13453c0,0.04484 0,0.08969 0,0.13453c0,0.04484 -0.01375,0.11026 0.04484,0.13453c0.04143,0.01716 0.04484,-0.04484 0.04484,-0.04484c0,-0.04484 0,-0.08969 0,-0.13453c0,-0.04484 0,-0.04484 0,-0.08969c0,-0.04484 0,-0.08969 0,-0.08969c0,-0.04484 0.04484,-0.04484 0.08969,-0.04484c0.04484,0 0.08969,0 0.08969,0c0.04484,0 0.08969,0 0.13453,0c0.04484,0 0.04484,-0.04484 0.08969,-0.04484l0.04484,0l-0.04484,0" id="svg_31" stroke="#000" fill="none"/>
  <path d="m6.42601,11.19955c0.04484,0 0.04484,0.04484 0.08969,0.04484c0,0 0.03824,0.05261 0.08969,0.08969c0.08135,0.05863 0.09089,0.03454 0.13453,0.04484c0.09759,0.02304 0.12793,0.09745 0.17937,0.13453c0.08135,0.05863 0.10282,0.10282 0.13453,0.13453c0.03171,0.03171 0.08969,0.04484 0.08969,0.08969l0,0l0.04484,0l0,0.04484" id="svg_32" stroke="#000" fill="none"/>
  <path d="m16.69507,11.51345c-0.04484,0 -0.08969,0 -0.13453,0c0,0 -0.04484,0 -0.08969,0c-0.04484,0 -0.08969,0 -0.08969,0c-0.04484,0 -0.08969,0 -0.13453,0l0,-0.04484" id="svg_33" stroke="#000" fill="none"/>
  <path d="m15.93274,3.1278c0.04484,0 0.08969,0 0.08969,0c0.04484,0 0.08969,0 0.13453,0c0.04484,0 0.01313,0.01313 0.04484,0.04484c0.03171,0.03171 0.08969,0 0.13453,0c0.04484,0 0.04484,0.04484 0.04484,0.04484l0.04484,0.04484l0.04484,0l0.04484,0" id="svg_34" stroke="#000" fill="none"/>
  <line id="svg_35" y2="11.51345" x2="7.36771" y1="3.48655" x1="7.4574" stroke="#000" fill="none"/>
  <line id="svg_37" y2="13.53139" x2="15.30493" y1="1.51345" x1="15.26009" stroke="#000" fill="none"/>
 </g>
</svg>