<?xml version="1.0" encoding="iso-8859-1"?>
<!-- Generator: Adobe Illustrator 18.1.1, SVG Export Plug-In . SVG Version: 6.00 Build 0)  -->
<svg version="1.1" id="Capa_1" xmlns="http://www.w3.org/2000/svg" xmlns:xlink="http://www.w3.org/1999/xlink" x="0px" y="0px"
	 viewBox="0 0 269.999 269.999" style="enable-background:new 0 0 269.999 269.999;" xml:space="preserve">
<path color-rendering="auto" image-rendering="auto" shape-rendering="auto" color-interpolation="sRGB" d="M4.926,0.001
	C2.194,0.042,0.001,2.267,0,4.999v260c0,2.761,2.239,5,5,5h260c2.762-0.001,5-2.24,4.999-5.002c0-1.325-0.527-2.596-1.463-3.534
	l-260-260C7.58,0.508,6.278-0.019,4.926,0.001L4.926,0.001z M10,17.069l242.93,242.93H10v-10h5c6.762,0.096,6.762-10.096,0-10h-5
	v-10h5c6.762,0.096,6.762-10.096,0-10h-5v-10h5c6.762,0.096,6.762-10.096,0-10h-5v-10h5c6.762,0.096,6.762-10.096,0-10h-5v-10h5
	c6.762,0.096,6.762-10.096,0-10h-5v-10h5c6.762,0.096,6.762-10.096,0-10h-5v-10h5c6.762,0.096,6.762-10.096,0-10h-5v-10h5
	c6.762,0.096,6.762-10.096,0-10h-5v-10h5c6.762,0.096,6.762-10.096,0-10h-5v-10h5c6.762,0.096,6.762-10.096,0-10h-5v-10h5
	c6.762,0.096,6.762-10.096,0-10h-5L10,17.069L10,17.069z M34.926,78.001c-2.732,0.041-4.925,2.266-4.926,4.998v152
	c0,2.761,2.239,5,5,5h152c2.762-0.001,5-2.24,4.999-5.002c0-1.325-0.527-2.596-1.463-3.534l-152-152
	C37.58,78.508,36.278,77.981,34.926,78.001L34.926,78.001z M40,95.069l134.93,134.93H40C40,229.999,40,95.069,40,95.069z"/>
<g>
</g>
<g>
</g>
<g>
</g>
<g>
</g>
<g>
</g>
<g>
</g>
<g>
</g>
<g>
</g>
<g>
</g>
<g>
</g>
<g>
</g>
<g>
</g>
<g>
</g>
<g>
</g>
<g>
</g>
</svg>
